<!DOCTYPE svg PUBLIC "-//W3C//DTD SVG 20010904//EN"
 "http://www.w3.org/TR/2001/REC-SVG-20010904/DTD/svg10.dtd">
<svg version="1.0" xmlns="http://www.w3.org/2000/svg" viewBox="0 0 100 72.5038">
  <path d="M97.5448 50.597c-.596-.7735-1.286-1.4643-2.0686-2.0731a11.44 11.44 0 0 1 .4964.6005c1.6365 2.1251 2.4552 4.6232 2.4552 7.494 0 2.261-.5303 4.4603-1.589 6.5963-1.0598 2.136-2.5063 3.843-4.3399 5.1201-1.8344 1.278-4.0953 2.0636-6.7833 2.3569-1.6857.181-5.7523.2941-12.1988.3394H37.421c-3.7378 0-6.7242-.3503-8.9581-1.0527-2.4953-.7942-4.5603-1.8492-6.1963-3.165.2142.2287.4332.4512.6574.6671 1.7556 1.697 4.1256 3.0203 7.1111 3.9706 2.2339.7024 5.2203 1.0527 8.9581 1.0527h36.096c6.4464-.0453 10.513-.1584 12.1987-.3394 2.6881-.2933 4.949-1.0789 6.7833-2.3569 1.8336-1.277 3.2801-2.984 4.3399-5.12 1.0587-2.136 1.589-4.3355 1.589-6.5963 0-2.871-.8187-5.369-2.4552-7.4941z"/>
  <path d="M26.7897 68.3166c2.2339.7024 5.2203 1.0526 8.958 1.0526h36.096c6.4465-.0452 10.513-.1583 12.1988-.3394 2.688-.2932 4.949-1.0788 6.7833-2.3568 1.8335-1.2771 3.2801-2.9841 4.3399-5.1201 1.0587-2.136 1.589-4.3354 1.589-6.5963 0-2.871-.8187-5.369-2.4552-7.494a11.602 11.602 0 0 0-.2119-.2658c-.5902-.7208-1.2657-1.3665-2.0262-1.937 1.4456-.9122 2.6401-2.0972 3.5835-3.5552 1.2594-1.9479 1.89-4.0883 1.89-6.4216 0-2.1514-.5132-4.0937-1.538-5.8269-.8731-1.4762-1.9337-2.701-3.1791-3.6758.5915.6592 1.1277 1.393 1.6068 2.2032 1.0248 1.7332 1.538 3.6755 1.538 5.8268 0 2.3333-.6305 4.4739-1.89 6.4216-1.032 1.5949-2.3647 2.8627-3.9976 3.8047-.856-.4298-1.7894-.7914-2.8007-1.0841 2.1569-.974 3.865-2.4347 5.1253-4.3824 1.2594-1.9478 1.89-4.0883 1.89-6.4216 0-2.1513-.5132-4.0936-1.538-5.8269-.3956-.6688-.83-1.2856-1.302-1.8515-.7509-.9-1.5979-1.6704-2.5416-2.31-1.5379-1.0417-3.281-1.727-5.2283-2.0554-1.9473-.3285-4.9032-.4933-8.8659-.4933H57.9103c-.7529-5.6395 1.2916-11.2332 5.3256-15.1063-1.4021.9388-2.9863 1.8027-4.7131 2.5537-2.1254 3.718-2.8936 8.1654-1.9234 12.5526h-1.2221l.001-.0004c-1.557-4.792-.9544-9.7779 1.3002-13.908a17.8888 17.8888 0 0 1 3.312-4.3324c-2.1978 1.4717-4.8413 2.7603-7.784 3.7165a35.1013 35.1013 0 0 1-1.654.493c.4382.3426.7795.8099.9619 1.371.5047 1.5537-.399 3.2394-2.0191 3.766a3.2128 3.2128 0 0 1-.7302.1465 2.9545 2.9545 0 0 1 .3384-1.1349c-.6677.1684-1.3397.1142-1.9213-.1179a2.8448 2.8448 0 0 0 .1896 1.0507c-.7969-.3115-1.4453-.948-1.7235-1.8043a2.8462 2.8462 0 0 1-.1367-.7604c-.0223-.5261.1017-1.0435.3466-1.5025-1.3717.3459-2.763-.2454-3.3462-1.395.1197 1.1998-.638 2.4028-1.8859 2.944.6794.3425 1.2235.9422 1.4707 1.7178.4927 1.5472-.3826 3.2082-1.9557 3.7098-.578.1878-1.1844.1814-1.7768.0122a7.291 7.291 0 0 1-.274-.7132c-.7528-2.3168-.3149-4.6154.9534-5.671-.8783.2852-1.7796.3818-2.6715.311-.3283 1.1126-.306 2.4965.146 3.8874.2073.638.4924 1.22.833 1.73-1.0771-.6688-2.012-1.8716-2.506-3.3919-.4285-1.3184-.4708-2.6307-.1944-3.7116.2093-.8185.6012-1.5045 1.1477-1.9594-2.0406.6628-4.2061.309-6.0878-.8042a10.4102 10.4102 0 0 1-.0822-.1255c.0015.0261.0025.0521.0038.0782a9.341 9.341 0 0 1-.9182-.6342 9.837 9.837 0 0 1-.6429-.55C27.4436 1.444 26.8736.7635 26.3833 0c.2331 4.0534-1.794 7.7059-5.2282 8.8222.8747.0576 1.766.5369 2.5222 1.3208.2477.2568.4804.5469.6939.865.1661.2475.3204.512.46.7922a6.8358 6.8358 0 0 1-.4308.1566c.1826.012.3658.0434.5484.0912.116.2562.2205.5237.311.8019.9016 2.7752-.0068 5.5584-2.0302 6.2158a3.042 3.042 0 0 1-.6552.1389 2.943 2.943 0 0 1 .3179-1.1103c-.6642.1479-1.3267.0896-1.8991-.136a2.8885 2.8885 0 0 0 .198 1.0585c-.7903-.3066-1.4395-.944-1.724-1.803a2.8946 2.8946 0 0 1-.1435-.7686 2.9265 2.9265 0 0 1 .3233-1.4854c-1.328.2957-2.649-.2328-3.2567-1.2746.205 1.273-.5731 2.5701-1.8866 3.0968.6938.3367 1.2483.9326 1.5 1.7072.5048 1.5537-.399 3.2394-2.0191 3.7658a3.2175 3.2175 0 0 1-.7303.1467 2.9038 2.9038 0 0 1 .1007-.5465 35.2223 35.2223 0 0 1-1.2177.4373 3.0862 3.0862 0 0 1-.2762-.093c-.6343-.248-1.174-.7022-1.5083-1.3092a2.8484 2.8484 0 0 1-.2152-.495c-.1823-.5612-.1808-1.14-.0278-1.6746a35.234 35.234 0 0 1-1.6278.5734C5.5392 20.25 2.643 20.7614 0 20.8627a18.2044 18.2044 0 0 1 4.823 1.3605c2.3731 1.04 4.5114 2.5826 6.2358 4.5423-1.4638-1.2703-3.1286-2.293-4.9195-3.0327-.9901.1402-1.9582.2286-2.894.2644 3.043.4187 5.922 1.6012 8.351 3.4095 1.267 1.5878 2.274 3.4204 2.9362 5.4587l.0017-.0006c-.0407.1132-.0822.2256-.1217.34-1.0936 3.1795-1.641 7.0995-1.641 11.7606 0 4.0965.5134 7.6263 1.539 10.5896 1.2539 3.6203 3.0427 6.551 5.368 8.791.202.1954.4126.3855.631.571 1.6787 1.4255 3.8383 2.5587 6.4801 3.3996zm59.5315-13.8433c0 1.7595-.4729 3.1642-1.4179 4.2132-.945 1.049-2.1685 1.7088-3.6716 1.9794-.98.2027-3.2909.3041-6.9338.3041h-6.1142V50.8397h8.1637c4.5995 0 7.5885.2371 8.9662.7105.171.0588.3368.122.4978.1896.3397.8062.5098 1.7173.5098 2.7335zm-1.8917-20.9002c0 1.6093-.4945 2.9071-1.4824 3.8937-.9889.9866-2.3459 1.5812-4.072 1.7848-.9548.114-3.3965.1702-7.326.1702h-3.3653v-8.3926h5.7927c4.7473 0 7.6217.057 8.6213.1702.5545.0674 1.063.1772 1.5274.3272.2023.6138.3043 1.2956.3043 2.0465zm-3.404-3.8464c-.9996-.1132-3.874-.1702-8.6212-.1702h-5.7927v9.8653h-1.673V27.8946h5.7926c4.7474 0 7.6217.057 8.6213.1702 1.6804.2045 2.947.7883 3.7988 1.7513.2022.2286.3795.474.5338.735-.7256-.422-1.6121-.697-2.6595-.8244zM64.9386 47.705h8.1637c4.5995 0 7.5885.2372 8.9662.7106 1.3776.4742 2.43 1.23 3.1592 2.2672.0373.0532.0731.1074.1086.1618-.4719-.3075-1.0031-.5635-1.5948-.7672-1.3776-.4733-4.3666-.7105-8.9662-.7105h-8.1636V60.97h-1.673zM44.645 60.9701h-7.5572c-2.827 0-4.8665-.1584-6.1205-.4752-.8426-.2091-1.6112-.4933-2.3067-.8515-.445-.8034-.8396-1.7658-1.1838-2.8872-.6844-2.2292-1.0265-5.2676-1.0265-9.1142 0-3.8466.3421-6.8 1.0265-8.86.6843-2.059 1.6409-3.6655 2.8716-4.8194 1.2307-1.154 2.7928-1.935 4.6847-2.3424 1.4135-.3168 4.1839-.4752 8.3096-.4752h1.3023zm-4.5475-32.9596h4.5475v1.6618h-2.8745c-4.1257 0-6.8961.1584-8.3096.4752-1.8919.4073-3.454 1.1884-4.6847 2.3424-1.2307 1.154-2.1873 2.7605-2.8716 4.8195-.6844 2.06-1.0265 5.0133-1.0265 8.86 0 3.8465.342 6.8849 1.0265 9.1141.4728 1.5404 1.0406 2.7806 1.7033 3.721a8.1088 8.1088 0 0 1-.727-.5796c-1.082-.973-1.9651-2.574-2.6494-4.8033-.6844-2.2292-1.0265-5.2676-1.0265-9.1142 0-3.8466.342-6.7999 1.0265-8.8599.6842-2.059 1.6409-3.6656 2.8716-4.8195 1.2307-1.154 2.7928-1.935 4.6847-2.3424 1.4135-.3167 4.184-.475 8.3097-.475z"/>
</svg>
