<?xml version="1.0" encoding="iso-8859-1"?>
<!-- Generator: Adobe Illustrator 14.0.0, SVG Export Plug-In . SVG Version: 6.00 Build 43363)  -->
<!DOCTYPE svg PUBLIC "-//W3C//DTD SVG 1.1//EN" "http://www.w3.org/Graphics/SVG/1.1/DTD/svg11.dtd">
<svg version="1.1" xmlns="http://www.w3.org/2000/svg" xmlns:xlink="http://www.w3.org/1999/xlink" x="0px" y="0px"
	 width="4302.825px" height="1559.894px" viewBox="0 0 4302.825 1559.894" style="enable-background:new 0 0 4302.825 1559.894;"
	 xml:space="preserve">
<g id="Layer_1" style="display:none;">
	
		<image style="display:inline;overflow:visible;" width="5064" height="1476" xlink:href="C357A06C.png"  transform="matrix(0.849 0 0 0.8476 3.0278 3.4082)">
	</image>
</g>
<g id="Top">
	<g>
		<path style="fill:#FFFFFF;" d="M2153.97,460.081c7.957,23.232,11.936,51.879,11.936,85.938c0,29.93-3.73,55.723-11.189,77.381
			c-9.119,26.457-22.133,47.869-39.041,64.238c-12.768,12.398-30.008,22.072-51.723,29.016c-16.248,5.127-37.963,7.689-65.148,7.689
			H1878.11v15.252h138.506c27.186,0,48.9-2.563,65.148-7.689c21.715-6.943,38.955-16.617,51.723-29.018
			c16.908-16.369,29.922-37.781,39.041-64.236c7.459-21.66,11.189-47.453,11.189-77.381c0-34.061-3.979-62.707-11.936-85.938
			c-7.959-23.229-19.564-42.865-34.814-58.904c-5.787-6.085-12.02-11.465-18.691-16.146c0.291,0.301,0.59,0.592,0.879,0.896
			C2134.405,417.218,2146.011,436.853,2153.97,460.081z"/>
		<polygon style="fill:#FFFFFF;" points="2488.917,724.343 2494.794,739.595 2574.864,739.595 2428.899,376.001 2417.21,376.001 
			2557.052,724.343 		"/>
		<path style="fill:#FFFFFF;" d="M2287.161,739.595l30.086-82.59h123.395l18.09,46.943h10.391h69.68L2401.024,360.75l-8.188-20.395
			h-77.832l-141.986,363.593h26.215h51.865l30.086-82.59h145.719l7.859,20.395h-135.328l-30.086,82.59h-54.313l-5.955,15.252
			H2287.161z M2403.28,560.098h-50.395l24.945-68.357L2403.28,560.098z M2353.052,425.177l12.975,34.852l-36.52,100.069h-25.691
			L2353.052,425.177z"/>
		<polygon style="fill:#FFFFFF;" points="2663.642,724.343 2669.108,739.595 2747.687,739.595 2877.481,378.096 2877.481,703.948 
			2895.731,703.948 2951.085,703.948 2951.085,360.75 2951.085,340.355 2877.481,340.355 2877.481,376.001 2854.944,376.001 
			2729.874,724.343 		"/>
		<polygon style="fill:#FFFFFF;" points="2913.544,724.343 2913.544,739.595 2987.147,739.595 2987.147,376.001 2969.335,376.001 
			2969.335,724.343 		"/>
		<path style="fill:#FFFFFF;" d="M3362.63,561.271c0-34.061-3.98-62.707-11.936-85.938c-7.959-23.229-19.563-42.865-34.814-58.904
			c-5.789-6.086-12.021-11.465-18.693-16.146c0.293,0.301,0.59,0.592,0.881,0.896c15.252,16.039,26.855,35.674,34.814,58.902
			c7.955,23.232,11.936,51.879,11.936,85.938c0,29.93-3.729,55.723-11.191,77.381c-9.117,26.457-22.129,47.869-39.039,64.238
			c-12.768,12.398-30.008,22.072-51.721,29.016c-16.25,5.127-37.965,7.689-65.152,7.689h-120.691v15.252h138.504
			c27.188,0,48.902-2.563,65.152-7.689c21.713-6.943,38.953-16.617,51.721-29.018c16.91-16.369,29.922-37.781,39.039-64.236
			C3358.901,616.991,3362.63,591.198,3362.63,561.271z"/>
		<path style="fill:#FFFFFF;" d="M2143.991,1053.212c1.301,1.467,2.564,2.967,3.762,4.525
			c11.936,15.543,17.902,33.816,17.902,54.811c0,16.537-3.854,32.615-11.563,48.24s-18.238,28.111-31.58,37.451
			c-13.346,9.344-29.801,15.09-49.359,17.236c-12.27,1.324-41.861,2.152-88.773,2.48h-106.27v15.252h124.083
			c46.912-0.33,76.504-1.156,88.773-2.48c19.559-2.146,36.014-7.895,49.359-17.238c13.342-9.34,23.871-21.826,31.58-37.449
			c7.709-15.625,11.563-31.705,11.563-48.24c0-20.996-5.967-39.268-17.902-54.813
			C2159.642,1065.276,2152.448,1058.685,2143.991,1053.212z"/>
		<polygon style="fill:#FFFFFF;" points="2784.485,869.614 2924.327,1217.956 2856.192,1217.956 2862.069,1233.208 
			2942.14,1233.208 2796.175,869.614 		"/>
		<path style="fill:#FFFFFF;" d="M3239.788,910.042c-5.789-6.086-12.023-11.467-18.695-16.15c0.293,0.303,0.592,0.594,0.883,0.9
			c15.252,16.039,26.857,35.674,34.814,58.902c7.957,23.232,11.936,51.879,11.936,85.938c0,29.93-3.729,55.723-11.189,77.383
			c-9.119,26.455-22.131,47.865-39.041,64.236c-12.768,12.398-30.006,22.072-51.721,29.016c-16.248,5.127-37.965,7.689-65.152,7.689
			h-120.691v15.252h138.504c27.188,0,48.904-2.563,65.152-7.689c21.715-6.945,38.953-16.617,51.721-29.018
			c16.91-16.371,29.922-37.779,39.041-64.236c7.461-21.658,11.189-47.453,11.189-77.381c0-34.061-3.979-62.707-11.936-85.938
			C3266.646,945.718,3255.04,926.083,3239.788,910.042z"/>
		<polygon style="fill:#FFFFFF;" points="3589.751,1217.956 3350.942,1217.956 3350.942,1233.208 3607.563,1233.208 
			3607.563,1171.946 3589.751,1171.946 		"/>
		<polygon style="fill:#FFFFFF;" points="3919.479,1217.956 3660.032,1217.956 3660.032,1233.208 3937.292,1233.208 
			3937.292,1171.946 3919.479,1171.946 		"/>
		<polygon style="fill:#FFFFFF;" points="4275.327,869.614 4150.981,1065.427 4150.981,1217.956 4095.44,1217.956 4095.44,1233.208 
			4168.794,1233.208 4168.794,1080.677 4302.825,869.614 		"/>
		<path style="fill:#FFFFFF;" d="M1980.554,703.948c27.186,0,48.9-2.563,65.148-7.689c21.715-6.943,38.955-16.617,51.723-29.018
			c16.908-16.369,29.922-37.781,39.041-64.236c7.459-21.659,11.189-47.453,11.189-77.381c0-34.061-3.979-62.706-11.936-85.938
			c-5.779-16.869-13.492-31.834-23.117-44.912c-3.629-4.93-7.521-9.601-11.697-13.992c-15.254-16.036-33.568-27.197-54.953-33.482
			c-15.916-4.627-39.041-6.944-69.379-6.944h-134.526v363.593h18.25H1980.554z M2064.103,457.667
			c4.975,15.048,7.461,36.625,7.461,64.732c0,28.111-2.486,50.309-7.461,66.592c-4.973,16.287-11.398,27.986-19.271,35.096
			s-17.777,12.152-29.713,15.128c-9.121,2.317-23.959,3.472-44.512,3.472h-18.893V437.509h33.072c30.004,0,50.145,1.16,60.426,3.473
			c4.982,1.078,9.646,2.52,14,4.313C2061.011,449.138,2062.646,453.257,2064.103,457.667z M1915.651,401.863h33.073
			c30.003,0,50.144,1.159,60.425,3.473c13.758,2.976,25.115,8.681,34.066,17.112c4.506,4.244,8.506,9.328,12.002,15.246
			c-7.811-5.646-17.08-9.641-27.818-11.963c-10.281-2.314-30.422-3.473-60.426-3.473h-33.072v220.428h-18.25V401.863z"/>
		<polygon style="fill:#FFFFFF;" points="2643.987,703.948 2711.622,703.948 2834.847,360.75 2842.169,340.355 2764.091,340.355 
			2686.546,574.109 2618.628,376.001 2606.044,376.001 2680.356,592.765 2674.821,609.453 2589.558,360.75 2582.565,340.355 
			2502.745,340.355 2633.046,703.948 		"/>
		<path style="fill:#FFFFFF;" d="M3159.464,703.948c27.188,0,48.902-2.563,65.152-7.689c21.713-6.943,38.953-16.617,51.721-29.018
			c16.91-16.369,29.922-37.781,39.039-64.236c7.463-21.659,11.191-47.453,11.191-77.381c0-34.061-3.98-62.706-11.936-85.938
			c-5.779-16.867-13.49-31.831-23.115-44.908c-3.631-4.932-7.523-9.604-11.699-13.996c-15.254-16.036-33.568-27.197-54.953-33.482
			c-15.916-4.627-39.041-6.944-69.379-6.944H3020.96v363.593h18.25H3159.464z M3243.017,457.667
			c4.973,15.048,7.461,36.625,7.461,64.732c0,28.111-2.488,50.309-7.461,66.592c-4.973,16.287-11.4,27.986-19.271,35.096
			c-7.877,7.109-17.779,12.152-29.715,15.128c-9.119,2.317-23.957,3.472-44.512,3.472h-18.893V437.509h33.072
			c30.004,0,50.145,1.16,60.426,3.473c4.984,1.078,9.646,2.52,14,4.314C3239.925,449.138,3241.558,453.257,3243.017,457.667z
			 M3094.563,401.863h33.072c30.004,0,50.145,1.159,60.426,3.473c13.76,2.976,25.113,8.681,34.066,17.112
			c4.506,4.244,8.506,9.328,12.004,15.248c-7.813-5.648-17.08-9.643-27.82-11.965c-10.281-2.314-30.422-3.473-60.426-3.473h-33.072
			v220.428h-18.25V401.863z"/>
		<path style="fill:#FFFFFF;" d="M1966.13,1197.562c46.912-0.33,76.504-1.156,88.773-2.48c19.559-2.146,36.014-7.895,49.359-17.238
			c13.342-9.34,23.871-21.826,31.58-37.449c7.709-15.625,11.563-31.705,11.563-48.24c0-18.277-4.525-34.488-13.57-48.635
			c-1.346-2.104-2.787-4.164-4.332-6.178c-1.016-1.322-2.082-2.6-3.172-3.855c10.223-6.594,18.707-15.08,25.434-25.477
			c9.199-14.219,13.801-29.844,13.801-46.875c0-15.707-3.73-29.887-11.191-42.535c-7.459-12.648-16.783-22.775-27.973-30.383
			c-0.551-0.373-1.105-0.734-1.662-1.096c4.355,4.85,8.299,10.254,11.822,16.227c7.461,12.65,11.191,26.83,11.191,42.535
			c0,17.033-4.602,32.658-13.801,46.875c-6.682,10.326-15.096,18.768-25.229,25.342c-8.766-5.803-18.906-10.393-30.445-13.742
			c15.746-7.107,28.223-17.771,37.424-31.994c9.199-14.219,13.801-29.844,13.801-46.875c0-15.707-3.73-29.887-11.191-42.535
			c-1.025-1.742-2.092-3.43-3.189-5.076c-6.875-10.309-15.135-18.746-24.783-25.307c-11.191-7.602-23.873-12.605-38.047-15.004
			c-14.174-2.396-35.684-3.598-64.527-3.598h-145.717v363.594h18.25H1966.13z M2071.315,1088.683
			c0,12.895-3.443,23.189-10.32,30.877c-6.881,7.689-15.791,12.525-26.73,14.51c-7.131,1.486-23.957,2.23-50.479,2.23h-32.072
			v-61.574h59.432c27.91,0,47.666,1.207,59.281,3.619C2071.015,1081.608,2071.315,1085.052,2071.315,1088.683z M2057.888,935.903
			c0,11.742-3.607,21.207-10.816,28.398c-7.213,7.191-17.119,11.531-29.717,13.021c-6.963,0.828-24.785,1.238-53.463,1.238h-12.178
			v-48.43h42.273c34.645,0,55.615,0.414,62.912,1.24c0.275,0.033,0.541,0.076,0.814,0.111
			C2057.825,932.919,2057.888,934.392,2057.888,935.903z M2039.087,916.12c-7.297-0.824-28.268-1.24-62.912-1.24h-42.273v63.682
			h-18.25v-84.076h42.273c34.645,0,55.616,0.414,62.913,1.24c12.266,1.488,21.508,5.746,27.725,12.771
			c3.102,3.508,5.43,7.539,6.982,12.094C2050.849,918.376,2045.366,916.882,2039.087,916.12z M1915.651,1039.079h59.432
			c33.484,0,55.242,1.736,65.273,5.207c10.027,3.473,17.693,9.014,23.002,16.617c1.707,2.451,3.137,5.074,4.295,7.867
			c-2.771-1.576-5.77-2.953-9.047-4.088c-10.031-3.473-31.789-5.209-65.273-5.209h-59.432v76.826h-18.25V1039.079z"/>
		<path style="fill:#FFFFFF;" d="M2537.56,1197.562l-44.512-70.934c-11.967-19.254-22.258-34.51-30.881-45.789
			c-2.641-3.457-5.123-6.529-7.449-9.238c28.553-5.182,50.293-15.998,65.193-32.467c16.076-17.771,24.119-40.303,24.119-67.584
			c0-21.492-5.309-40.588-15.914-57.293c-7.254-11.412-16.152-20.445-26.695-27.109c3.191,3.619,6.156,7.568,8.883,11.859
			c10.605,16.703,15.914,35.801,15.914,57.293c0,27.281-8.043,49.811-24.119,67.582c-14.559,16.092-35.656,26.777-63.246,32.094
			c-7.906-6.664-16.941-12.959-27.117-18.881c31.992-4.627,56.029-15.83,72.113-33.607c16.076-17.771,24.119-40.303,24.119-67.584
			c0-21.492-5.309-40.588-15.914-57.293c-0.27-0.422-0.549-0.828-0.822-1.244c-10.518-16.023-24.367-27.23-41.574-33.602
			c-17.656-6.529-45.965-9.797-84.92-9.797h-154.916v363.594h18.25h55.354v-151.787h14.92c16.908,0,29.256,1.363,37.049,4.092
			s15.172,7.775,22.135,15.131c2.801,2.961,6.572,7.619,11.307,13.967c-4.877-3.943-9.938-6.861-15.191-8.701
			c-7.793-2.729-20.141-4.092-37.049-4.092h-14.92v151.785h-55.791v15.252h73.604v-151.787h14.92
			c16.908,0,29.256,1.363,37.049,4.092c1.018,0.357,2.027,0.758,3.029,1.191c6.078,8.477,13.352,19.051,21.832,31.738l53.215,79.119
			h4.531H2537.56z M2431.595,932.538c0.35,2.57,0.531,5.258,0.531,8.078c0,10.914-2.488,20.008-7.461,27.281
			c-4.973,7.277-11.854,12.402-20.641,15.377c-8.785,2.977-30.834,4.463-66.143,4.463h-18.395v-56.615h57.441
			c29.838,0,47.744,0.416,53.711,1.24C2430.962,932.417,2431.276,932.479,2431.595,932.538z M2283.425,987.737v-92.262h57.441
			c29.838,0,47.744,0.416,53.711,1.24c11.936,1.984,21.174,6.74,27.725,14.262c2.9,3.334,5.156,7.131,6.771,11.387
			c-4.707-2.479-10.119-4.234-16.246-5.252c-5.967-0.826-23.873-1.24-53.711-1.24h-57.441v71.865H2283.425z"/>
		<path style="fill:#FFFFFF;" d="M2906.077,1197.562L2768.3,854.364l-8.188-20.396h-77.832l-137.783,352.828l-15.387-24.521
			c-17.574-28.273-31.543-47.949-41.9-59.027c-5.996-6.41-12.93-12.514-20.785-18.316c1.012,1.014,2.008,2.035,2.973,3.064
			c10.357,11.08,24.326,30.754,41.9,59.027l30.037,47.869l-1.041,2.67h2.717l12.799,20.395h-80.473l10.258,15.252h88.027
			l-9.57-15.252h-5.508l2.113-5.41l-9.404-14.984h15.256h51.865l30.088-82.59h145.715l7.861,20.395h-135.326l-30.088,82.59h-54.313
			l-5.955,15.252h78.08l30.088-82.59h123.391l18.09,46.943h10.393H2906.077z M2770.556,1053.712h-50.395l24.945-68.359
			L2770.556,1053.712z M2720.325,918.79l12.975,34.852l-36.518,100.07h-25.691L2720.325,918.79z"/>
		<path style="fill:#FFFFFF;" d="M3083.372,1197.562c27.188,0,48.904-2.563,65.152-7.689c21.715-6.945,38.953-16.617,51.721-29.018
			c16.91-16.371,29.922-37.779,39.041-64.236c7.461-21.658,11.189-47.453,11.189-77.381c0-34.061-3.979-62.707-11.936-85.938
			c-5.779-16.869-13.492-31.832-23.117-44.91c-3.629-4.93-7.521-9.602-11.697-13.994c-15.252-16.035-33.566-27.197-54.953-33.482
			c-15.914-4.627-39.039-6.945-69.377-6.945h-134.527v363.594h18.25H3083.372z M3166.925,951.28
			c4.973,15.047,7.461,36.625,7.461,64.732c0,28.111-2.488,50.309-7.461,66.592c-4.973,16.287-11.398,27.988-19.27,35.094
			c-7.877,7.113-17.781,12.154-29.717,15.131c-9.119,2.316-23.955,3.471-44.512,3.471h-18.891V931.122h33.07
			c30.004,0,50.146,1.16,60.426,3.475c4.984,1.078,9.646,2.52,14,4.313C3163.833,942.751,3165.466,946.87,3166.925,951.28z
			 M3018.474,895.476h33.07c30.004,0,50.146,1.16,60.426,3.475c13.76,2.977,25.115,8.68,34.066,17.113
			c4.506,4.242,8.506,9.326,12.004,15.246c-7.811-5.648-17.08-9.641-27.82-11.965c-10.279-2.313-30.422-3.473-60.426-3.473h-33.07
			V1136.3h-18.25V895.476z"/>
		<polygon style="fill:#FFFFFF;" points="3571.501,1197.562 3571.501,1156.696 3571.501,1136.3 3424.548,1136.3 3424.548,872.591 
			3406.735,872.591 3406.735,1136.3 3388.485,1136.3 3388.485,857.341 3388.485,836.944 3314.88,836.944 3314.88,1197.562 
			3333.13,1197.562 		"/>
		<polygon style="fill:#FFFFFF;" points="3901.229,1197.562 3901.229,1156.696 3901.229,1136.3 3733.636,1136.3 3733.636,1072.987 
			3916.651,1072.987 3916.651,1011.729 3898.839,1011.729 3898.839,1057.737 3715.823,1057.737 3715.823,1136.3 3697.573,1136.3 
			3697.573,1037.341 3880.589,1037.341 3880.589,996.478 3880.589,976.083 3733.636,976.083 3733.636,931.122 3930.329,931.122 
			3930.329,869.614 3912.517,869.614 3912.517,915.872 3715.823,915.872 3715.823,976.083 3697.573,976.083 3697.573,895.476 
			3894.267,895.476 3894.267,854.364 3894.267,833.968 3623.97,833.968 3623.97,1197.562 3642.22,1197.562 		"/>
		<polygon style="fill:#FFFFFF;" points="4132.731,1197.562 4132.731,1045.03 4253.812,854.364 4266.763,833.968 4181.97,833.968 
			4105.247,965.28 4048.194,869.614 4039.478,869.614 4100.933,972.663 4097.921,977.817 4024.296,854.364 4012.132,833.968 
			3925.845,833.968 4059.378,1044.534 4059.378,1197.562 4077.628,1197.562 		"/>
	</g>
	<g>
		<path style="fill:#FFFFFF;" d="M1683.973,873.487c-10.29-13.355-22.199-25.281-35.711-35.791c2.97,3.355,5.829,6.81,8.57,10.367
			c28.252,36.688,42.385,79.813,42.385,129.375c0,39.031-9.154,77-27.432,113.875c-18.295,36.875-43.268,66.344-74.922,88.391
			c-31.668,22.063-70.699,35.625-117.104,40.688c-29.102,3.125-99.305,5.078-210.595,5.859H974.786H646.019
			c-64.528,0-116.084-6.047-154.649-18.172c-43.077-13.712-78.727-31.925-106.97-54.641c3.697,3.949,7.479,7.79,11.348,11.518
			c30.308,29.297,71.224,52.141,122.764,68.547c38.565,12.125,90.121,18.172,154.649,18.172h328.768h294.377
			c111.29-0.781,181.493-2.734,210.595-5.859c46.406-5.063,85.437-18.625,117.104-40.688c31.654-22.047,56.627-51.516,74.922-88.391
			c18.277-36.875,27.432-74.844,27.432-113.875C1726.358,953.3,1712.225,910.175,1683.973,873.487z"/>
		<path style="fill:#FFFFFF;" d="M462.486,1179.39c38.565,12.125,90.121,18.172,154.649,18.172h328.768h294.377
			c111.29-0.781,181.493-2.734,210.595-5.859c46.406-5.063,85.437-18.625,117.104-40.688c31.654-22.047,56.627-51.516,74.922-88.391
			c18.277-36.875,27.432-74.844,27.432-113.875c0-49.563-14.133-92.688-42.385-129.375c-1.195-1.551-2.42-3.075-3.658-4.588
			c-10.189-12.444-21.85-23.59-34.98-33.438c24.957-15.75,45.578-36.207,61.864-61.377c21.742-33.627,32.627-70.579,32.627-110.86
			c0-37.14-8.859-70.671-26.551-100.593c-15.072-25.484-33.381-46.629-54.882-63.458c10.211,11.381,19.468,24.048,27.74,38.035
			c17.691,29.922,26.551,63.453,26.551,100.593c0,40.281-10.885,77.234-32.627,110.859c-17.816,27.533-40.824,49.421-69.015,65.682
			c-14.778-7.419-30.89-13.662-48.35-18.715c37.236-16.813,66.724-42.031,88.482-75.656c21.742-33.625,32.627-70.579,32.627-110.859
			c0-37.14-8.859-70.671-26.551-100.593c-6.829-11.546-14.327-22.195-22.478-31.965c-12.961-15.537-27.584-28.837-43.875-39.878
			c-26.55-17.984-56.642-29.813-90.26-35.484s-84.646-8.516-153.057-8.516H999.739c-12.997-97.358,22.299-193.926,91.939-260.789
			c-24.205,16.208-51.554,31.121-81.365,44.087c-36.691,64.184-49.953,140.964-33.205,216.702h-21.097l0.018-0.006
			c-26.879-82.727-16.477-168.802,22.446-240.104c14.994-27.467,34.216-52.746,57.177-74.791
			c-37.942,25.407-83.579,47.653-134.379,64.159c-9.552,3.104-19.078,5.938-28.555,8.51c7.564,5.916,13.457,13.983,16.605,23.67
			c8.714,26.822-6.888,55.924-34.857,65.013c-4.188,1.361-8.415,2.185-12.605,2.53c0.596-6.864,2.604-13.523,5.842-19.591
			c-11.527,2.907-23.129,1.97-33.168-2.036c-0.05,5.205,0.714,10.485,2.401,15.679c0.271,0.832,0.562,1.651,0.872,2.459
			c-13.758-5.376-24.951-16.365-29.755-31.148c-1.412-4.347-2.175-8.754-2.36-13.128c-0.385-9.082,1.756-18.014,5.985-25.938
			c-23.681,5.971-47.699-4.237-57.768-24.084c2.067,20.714-11.015,41.483-32.557,50.827c11.728,5.911,21.122,16.264,25.389,29.654
			c8.505,26.711-6.606,55.385-33.762,64.044c-9.978,3.242-20.447,3.132-30.675,0.211c-1.76-3.951-3.346-8.057-4.729-12.312
			c-12.996-39.997-5.437-79.679,16.458-97.902c-15.162,4.924-30.722,6.591-46.119,5.368c-5.668,19.209-5.282,43.1,2.52,67.111
			c3.579,11.015,8.501,21.061,14.381,29.868c-18.595-11.548-34.736-32.313-43.264-58.558c-7.396-22.761-8.126-45.415-3.354-64.075
			c3.613-14.131,10.378-25.974,19.813-33.827c-35.229,11.442-72.613,5.334-105.098-13.883c-0.476-0.719-0.951-1.439-1.418-2.167
			c0.026,0.451,0.043,0.9,0.066,1.351c-5.436-3.291-10.731-6.943-15.852-10.95c-3.801-2.974-7.504-6.144-11.099-9.493
			C473.775,24.928,463.935,13.179,455.471,0c4.024,69.976-30.971,133.031-90.258,152.303c15.101,0.995,30.487,9.268,43.543,22.802
			c4.276,4.433,8.293,9.441,11.978,14.932c2.868,4.273,5.532,8.838,7.942,13.676c-2.436,0.977-4.913,1.883-7.438,2.704
			c3.152,0.208,6.315,0.75,9.468,1.574c2.004,4.423,3.807,9.042,5.368,13.844c15.566,47.91-0.117,95.958-35.048,107.308
			c-3.751,1.242-7.541,2.021-11.31,2.397c0.542-6.72,2.43-13.23,5.487-19.167c-11.467,2.553-22.904,1.547-32.785-2.347
			c-0.01,5.252,0.798,10.587,2.54,15.836c0.273,0.824,0.566,1.636,0.877,2.437c-13.642-5.293-24.85-16.297-29.76-31.126
			c-1.458-4.396-2.259-8.852-2.479-13.27c-0.447-8.988,1.55-17.815,5.582-25.643c-22.927,5.105-45.731-4.019-56.222-22.005
			c3.538,21.977-9.895,44.37-32.57,53.462c11.978,5.813,21.55,16.1,25.895,29.473c8.715,26.822-6.887,55.924-34.857,65.012
			c-4.189,1.361-8.417,2.185-12.608,2.531c0.279-3.202,0.861-6.36,1.74-9.434c-6.895,2.621-13.908,5.141-21.022,7.55
			c-1.619-0.462-3.21-0.998-4.769-1.607c-10.951-4.28-20.267-12.121-26.038-22.6c-1.479-2.685-2.737-5.532-3.716-8.547
			c-3.146-9.688-3.121-19.678-0.479-28.909c-9.172,3.486-18.551,6.795-28.103,9.899C95.627,349.589,45.63,358.417,0,360.165
			c28.882,3.974,56.907,11.94,83.261,23.488c40.97,17.954,77.885,44.585,107.653,78.415c-25.27-21.929-54.01-39.586-84.928-52.354
			c-17.093,2.42-33.805,3.946-49.96,4.564c52.531,7.228,102.235,27.643,144.167,58.86c21.873,27.411,39.257,59.048,50.69,94.237
			l0.03-0.01c-0.703,1.953-1.419,3.894-2.1,5.869c-18.88,54.89-28.329,122.563-28.329,203.031
			c0,70.719,8.861,131.656,26.566,182.813c21.648,62.5,52.53,113.094,92.672,151.766c3.488,3.372,7.124,6.654,10.893,9.855
			C379.596,1145.309,416.878,1164.872,462.486,1179.39z M1490.214,940.405c0,30.375-8.164,54.625-24.478,72.734
			s-37.437,29.5-63.385,34.172c-16.917,3.5-56.813,5.25-119.702,5.25h-105.553V877.675h140.934
			c79.404,0,131.005,4.094,154.789,12.266c2.951,1.016,5.814,2.107,8.593,3.273C1487.277,907.133,1490.214,922.861,1490.214,940.405
			z M1457.556,579.593c0,27.781-8.536,50.187-25.591,67.218c-17.072,17.032-40.499,27.297-70.297,30.813
			c-16.484,1.969-58.637,2.938-126.475,2.938h-58.096V535.675H1277.1c81.956,0,131.578,0.984,148.834,2.938
			c9.574,1.165,18.352,3.059,26.369,5.65C1455.795,554.858,1457.556,566.629,1457.556,579.593z M1398.792,513.189
			c-17.257-1.953-66.879-2.938-148.834-2.938h-100.002v170.31h-28.883v-199h100.002c81.956,0,131.578,0.984,148.834,2.938
			c29.01,3.531,50.875,13.609,65.581,30.234c3.49,3.946,6.552,8.182,9.215,12.69C1432.178,520.137,1416.874,515.39,1398.792,513.189
			z M1121.072,823.562h140.934c79.404,0,131.005,4.094,154.789,12.266c23.782,8.188,41.952,21.234,54.539,39.141
			c0.645,0.919,1.263,1.854,1.875,2.793c-8.146-5.309-17.317-9.728-27.531-13.244c-23.783-8.172-75.384-12.266-154.789-12.266
			h-140.934v200.311h-28.883V823.562z M770.733,1052.562H640.269c-48.803,0-84.013-2.734-105.662-8.203
			c-14.546-3.61-27.815-8.516-39.823-14.699c-7.681-13.871-14.493-30.484-20.436-49.844
			c-11.815-38.484-17.721-90.938-17.721-157.344s5.906-117.393,17.721-152.955c11.813-35.545,28.328-63.28,49.575-83.201
			c21.246-19.922,48.213-33.406,80.874-40.438c24.402-5.469,72.229-8.203,143.454-8.203h22.482V1052.562z M692.226,483.562h78.507
			v28.689h-49.624c-71.225,0-119.052,2.734-143.454,8.203c-32.66,7.031-59.627,20.516-80.874,40.438
			c-21.247,19.921-37.762,47.656-49.575,83.203c-11.815,35.563-17.721,86.547-17.721,152.953s5.906,118.859,17.721,157.344
			c8.163,26.592,17.965,48.003,29.406,64.239c-4.396-3.12-8.587-6.447-12.55-10.007c-18.68-16.797-33.926-44.438-45.74-82.922
			c-11.815-38.484-17.721-90.938-17.721-157.344s5.906-117.391,17.721-152.954c11.813-35.546,28.328-63.281,49.575-83.202
			c21.246-19.922,48.213-33.406,80.874-40.438C573.174,486.296,621.001,483.562,692.226,483.562z"/>
	</g>
</g>
</svg>
